<?xml version="1.0" encoding="utf-8"?>
<!-- Generator: Adobe Illustrator 18.0.0, SVG Export Plug-In . SVG Version: 6.00 Build 0)  -->
<!DOCTYPE svg PUBLIC "-//W3C//DTD SVG 1.1//EN" "http://www.w3.org/Graphics/SVG/1.1/DTD/svg11.dtd">
<svg version="1.1" id="Слой_1" xmlns="http://www.w3.org/2000/svg" xmlns:xlink="http://www.w3.org/1999/xlink" x="0px" y="0px"
	 width="42px" height="152px" viewBox="0 0 42 152" enable-background="new 0 0 42 152" xml:space="preserve">
<g id="arrow-right">
	
		<rect x="22.04" y="76.62" transform="matrix(-0.7071 -0.7071 0.7071 -0.7071 -20.5967 160.9639)" fill="#CE9C73" width="2" height="16.25"/>
	
		<rect x="22.04" y="86.7" transform="matrix(0.7071 -0.7071 0.7071 0.7071 -60.3032 44.064)" fill="#CE9C73" width="2" height="16.25"/>
</g>
<g id="arrow-left">
	
		<rect x="22.04" y="35.62" transform="matrix(0.7071 -0.7071 0.7071 0.7071 -24.183 29.1024)" fill="#CE9C73" width="2" height="16.25"/>
	
		<rect x="22.04" y="45.69" transform="matrix(-0.7071 -0.7071 0.7071 -0.7071 1.2724 108.1666)" fill="#CE9C73" width="2" height="16.25"/>
</g>
<g id="close">
	<g>
		
			<rect x="21" y="3.82" transform="matrix(0.7071 -0.7071 0.7071 0.7071 -3.2988 19.5925)" fill="#CE9C73" width="2" height="19.91"/>
		
			<rect x="21" y="3.82" transform="matrix(0.7071 0.7071 -0.7071 0.7071 16.1864 -11.5214)" fill="#CE9C73" width="2" height="19.91"/>
	</g>
</g>
</svg>
