<?xml version="1.0" encoding="utf-8"?>
<!-- Generator: Adobe Illustrator 19.1.0, SVG Export Plug-In . SVG Version: 6.00 Build 0)  -->
<svg version="1.1" id="Слой_1" xmlns="http://www.w3.org/2000/svg" xmlns:xlink="http://www.w3.org/1999/xlink" x="0px" y="0px"
	 width="96.19px" height="136px" viewBox="200.85 -199.5 96.19 136" style="enable-background:new 200.85 -199.5 96.19 136;"
	 xml:space="preserve">
<style type="text/css">
	.st0{fill:#F14B00;}
	.st1{fill:#612D03;}
	.st2{fill:#994F2A;}
	.st3{fill:#C6AE92;}
	.st4{fill:#E5AA70;}
	.st5{fill:none;stroke:#9E5833;stroke-miterlimit:10;}
</style>
<g id="arrow-red-bottom">
	<rect x="207.53" y="-77.98" class="st0" width="0.96" height="14.48"/>
	<polygon class="st0" points="214.43,-70.45 215.15,-71.15 207.99,-78.5 207.27,-77.73 	"/>
	<polygon class="st0" points="201.57,-70.45 200.85,-71.15 208.01,-78.5 208.73,-77.73 	"/>
</g>
<g id="arrow-red_1_">
	<rect x="207.53" y="-107.5" class="st0" width="0.96" height="14.48"/>
	<polygon class="st0" points="207.27,-93.27 207.99,-92.5 215.15,-99.85 214.43,-100.55 	"/>
	<polygon class="st0" points="208.73,-93.27 208.01,-92.5 200.85,-99.85 201.57,-100.55 	"/>
</g>
<g id="arrow-dark_1_">
	<rect x="207.53" y="-164.98" class="st1" width="0.96" height="14.48"/>
	<polygon class="st1" points="214.43,-157.45 215.15,-158.15 207.99,-165.5 207.27,-164.73 	"/>
	<polygon class="st1" points="201.57,-157.45 200.85,-158.15 208.01,-165.5 208.73,-164.73 	"/>
</g>
<g id="arrow-dark-bottom">
	<rect x="207.53" y="-135.5" class="st1" width="0.96" height="14.48"/>
	<polygon class="st1" points="207.27,-121.27 207.99,-120.5 215.15,-127.85 214.43,-128.55 	"/>
	<polygon class="st1" points="208.73,-121.27 208.01,-120.5 200.85,-127.85 201.57,-128.55 	"/>
</g>
<g id="arrow_2_">
	<rect x="207.53" y="-199.5" class="st2" width="0.96" height="14.48"/>
	<polygon class="st2" points="207.27,-185.27 207.99,-184.5 215.15,-191.85 214.43,-192.55 	"/>
	<polygon class="st2" points="208.73,-185.27 208.01,-184.5 200.85,-191.85 201.57,-192.55 	"/>
</g>
<g id="arrow_1_">
	<rect x="230.02" y="-129.47" class="st2" width="14.48" height="0.96"/>
	<polygon class="st2" points="230.27,-129.73 229.5,-129.01 236.85,-121.85 237.55,-122.57 	"/>
	<polygon class="st2" points="230.27,-128.27 229.5,-128.99 236.85,-136.15 237.55,-135.43 	"/>
</g>
<g id="arrow_5_">
	<rect x="230.02" y="-102.47" class="st0" width="14.48" height="0.96"/>
	<polygon class="st0" points="230.27,-102.73 229.5,-102.01 236.85,-94.85 237.55,-95.57 	"/>
	<polygon class="st0" points="230.27,-101.27 229.5,-101.99 236.85,-109.15 237.55,-108.43 	"/>
</g>
<g id="arrow_7_">
	<rect x="230.02" y="-76.47" class="st3" width="14.48" height="0.96"/>
	<polygon class="st3" points="230.27,-76.73 229.5,-76.01 236.85,-68.85 237.55,-69.57 	"/>
	<polygon class="st3" points="230.27,-75.27 229.5,-75.99 236.85,-83.15 237.55,-82.43 	"/>
</g>
<g id="arrow_3_">
	<rect x="255.5" y="-102.49" class="st0" width="14.48" height="0.96"/>
	<polygon class="st0" points="269.73,-101.27 270.5,-101.99 263.15,-109.15 262.45,-108.43 	"/>
	<polygon class="st0" points="269.73,-102.73 270.5,-102.01 263.15,-94.85 262.45,-95.57 	"/>
</g>
<g id="arrow_6_">
	<rect x="255.5" y="-76.49" class="st3" width="14.48" height="0.96"/>
	<polygon class="st3" points="269.73,-75.27 270.5,-75.99 263.15,-83.15 262.45,-82.43 	"/>
	<polygon class="st3" points="269.73,-76.73 270.5,-76.01 263.15,-68.85 262.45,-69.57 	"/>
</g>
<g id="arrow_4_">
	<rect x="255.5" y="-129.49" class="st2" width="14.48" height="0.96"/>
	<polygon class="st2" points="269.73,-128.27 270.5,-128.99 263.15,-136.15 262.45,-135.43 	"/>
	<polygon class="st2" points="269.73,-129.73 270.5,-129.01 263.15,-121.85 262.45,-122.57 	"/>
</g>
<g id="arrow-form-right-d">
	<polygon class="st4" points="238.47,-176.89 239.27,-176.15 231.72,-169.29 231.05,-170.02 	"/>
	
		<rect x="234.59" y="-184.39" transform="matrix(0.6729 -0.7397 0.7397 0.6729 209.5182 115.2586)" class="st4" width="1" height="10.2"/>
</g>
<g id="arrow-form-bottom-d">
	<polygon class="st4" points="238.7,-190.65 237.96,-189.86 231.1,-197.4 231.84,-198.07 233.92,-195.82 	"/>
	
		<rect x="240.6" y="-199.14" transform="matrix(0.7397 0.6729 -0.6729 0.7397 -67.8154 -212.7454)" class="st4" width="1" height="10.2"/>
	<polygon class="st2" points="261.7,-190.65 260.96,-189.86 254.1,-197.4 254.84,-198.07 256.92,-195.82 	"/>
	<polygon class="st2" points="264.35,-177.7 265.14,-176.96 257.6,-170.1 256.93,-170.84 259.18,-172.92 	"/>
	
		<rect x="260.47" y="-185.2" transform="matrix(0.6729 -0.7397 0.7397 0.6729 218.5821 134.1346)" class="st2" width="1" height="10.2"/>
	
		<rect x="263.6" y="-199.14" transform="matrix(0.7397 0.6729 -0.6729 0.7397 -61.829 -228.2231)" class="st2" width="1" height="10.2"/>
</g>
<g id="search">
	<line class="st5" x1="290.57" y1="-186.17" x2="296.72" y2="-181"/>
	<circle class="st5" cx="285.34" cy="-191.21" r="7.62"/>
</g>
</svg>
